<svg width="13" height="15" viewBox="0 0 13 15" fill="none" xmlns="http://www.w3.org/2000/svg">
  <path d="M12.5 10.3336C12.5 11.4381 11.6046 12.3336 10.5 12.3336C9.39543 12.3336 8.5 11.4381 8.5 10.3336C8.5 9.22901 9.39543 8.33358 10.5 8.33358C11.6046 8.33358 12.5 9.22901 12.5 10.3336ZM12.5 10.3336V6.18348C12.5 5.2734 11.6084 4.63077 10.745 4.91857L6.32339 6.39244C5.23448 6.75542 4.5 7.77445 4.5 8.92227V11.6669M4.5 11.6669C4.5 12.7715 3.60457 13.6669 2.5 13.6669C1.39543 13.6669 0.5 12.7715 0.5 11.6669C0.5 10.5623 1.39543 9.66691 2.5 9.66691C3.60457 9.66691 4.5 10.5623 4.5 11.6669ZM12.5 7.00024V2.18348C12.5 1.2734 11.6084 0.630774 10.745 0.918566L6.32339 2.39244C5.23448 2.75542 4.5 3.77445 4.5 4.92227V8.33358" stroke="#09090B" stroke-linecap="round" stroke-linejoin="round" />
</svg>