<svg width="15" height="16" viewBox="0 0 15 16" fill="none" xmlns="http://www.w3.org/2000/svg">
  <path d="M3.50016 8.00016C3.50016 10.2093 5.29102 12.0002 7.50016 12.0002M14.1668 1.3335V2.709C14.1668 3.1047 13.9911 3.47997 13.6871 3.73329L10.1668 6.66683M14.1668 8.00016C14.1668 11.6821 11.1821 14.6668 7.50016 14.6668C3.81826 14.6668 0.833496 11.6821 0.833496 8.00016C0.833496 4.31826 3.81826 1.3335 7.50016 1.3335C11.1821 1.3335 14.1668 4.31826 14.1668 8.00016ZM8.8335 8.00016C8.8335 7.26378 8.23654 6.66683 7.50016 6.66683C6.76378 6.66683 6.16683 7.26378 6.16683 8.00016C6.16683 8.73654 6.76378 9.3335 7.50016 9.3335C8.23654 9.3335 8.8335 8.73654 8.8335 8.00016Z" stroke="#09090B" stroke-linecap="round" />
</svg>